<?xml version="1.0" encoding="UTF-8"?>
<svg width="4px" height="33px" viewBox="0 0 4 33" version="1.1" xmlns="http://www.w3.org/2000/svg" xmlns:xlink="http://www.w3.org/1999/xlink">
    <title>点点点</title>
    <g id="页面-1" stroke="none" stroke-width="1" fill="none" fill-rule="evenodd" opacity="0.449999988">
        <g id="权限管理-权限配置-修改" transform="translate(-541.000000, -518.000000)">
            <g id="矩形" transform="translate(543.000000, 494.500000) rotate(90.000000) translate(-543.000000, -494.500000) translate(162.500000, 490.759459)">
                <g id="点点点" transform="translate(404.707390, 2.524334)">
                    <g id="编组-3" transform="translate(0.000000, 0.000000)" fill="#999999" fill-rule="nonzero">
                        <g id="编组-2">
                            <path d="M2.80540541,-1.34971777e-14 L2.80540541,2.96148074 L-1.0125234e-13,2.96148074 L-1.0125234e-13,-1.33253962e-14 L2.80540541,-1.34971777e-14 Z M8.61081081,-1.38526563e-14 L8.61081081,2.96148074 L5.80540541,2.96148074 L5.80540541,-1.36808747e-14 L8.61081081,-1.38526563e-14 Z M14.4162162,-1.42081348e-14 L14.4162162,2.96148074 L11.6108108,2.96148074 L11.6108108,-1.40363533e-14 L14.4162162,-1.42081348e-14 Z M20.5742898,-1.34971777e-14 L20.5742898,2.96148074 L17.7688844,2.96148074 L17.7688844,-1.33253962e-14 L20.5742898,-1.34971777e-14 Z M26.3796953,-1.38526563e-14 L26.3796953,2.96148074 L23.5742898,2.96148074 L23.5742898,-1.36808747e-14 L26.3796953,-1.38526563e-14 Z M32.1851007,-1.42081348e-14 L32.1851007,2.96148074 L29.3796953,2.96148074 L29.3796953,-1.40363533e-14 L32.1851007,-1.42081348e-14 Z" id="形状结合"></path>
                        </g>
                    </g>
                    <g id="编组-2" transform="translate(17.768884, 0.000000)"></g>
                </g>
            </g>
        </g>
    </g>
</svg>